<?xml version="1.0" encoding="UTF-8"?>
<svg width="548px" height="527px" viewBox="0 0 548 527" version="1.1" xmlns="http://www.w3.org/2000/svg" xmlns:xlink="http://www.w3.org/1999/xlink">
    <!-- Generator: Sketch 52.6 (67491) - http://www.bohemiancoding.com/sketch -->
    <title>logo</title>
    <desc>Created with Sketch.</desc>
    <defs>
        <linearGradient x1="97.0193509%" y1="2.45560144%" x2="6.26237783%" y2="96.7776576%" id="linearGradient-1">
            <stop stop-color="#80C3F3" offset="0%"></stop>
            <stop stop-color="#114D94" offset="100%"></stop>
        </linearGradient>
        <linearGradient x1="1.60925033%" y1="2.29065534%" x2="100%" y2="100%" id="linearGradient-2">
            <stop stop-color="#3F51B5" offset="0%"></stop>
            <stop stop-color="#021891" offset="100%"></stop>
        </linearGradient>
    </defs>
    <g id="Page-1" stroke="none" stroke-width="1" fill="none" fill-rule="evenodd">
        <g id="logo" transform="translate(-298.000000, -289.000000)">
            <path d="M383.612892,417.669671 L832.30966,290.285419 C837.622551,288.777098 843.152236,291.861312 844.660557,297.174203 C845.108897,298.75343 845.161551,300.418748 844.813872,302.023144 L754.052037,720.851196 C753.055209,725.451139 748.985593,728.733312 744.278881,728.733312 L386.343948,728.733312 C380.821101,728.733312 376.343948,724.256159 376.343948,718.733312 L376.343948,427.289512 C376.343948,422.81848 379.311831,418.890735 383.612892,417.669671 Z" id="secondary-background" fill="url(#linearGradient-1)"></path>
            <path d="M305.604483,504.771268 L754.301251,377.387016 C759.614142,375.878695 765.143827,378.962908 766.652148,384.2758 C767.100488,385.855027 767.153142,387.520345 766.805463,389.124741 L676.043627,807.952793 C675.0468,812.552736 670.977184,815.834908 666.270472,815.834908 L308.335539,815.834908 C302.812692,815.834908 298.335539,811.357756 298.335539,805.834908 L298.335539,514.391108 C298.335539,509.920077 301.303422,505.992331 305.604483,504.771268 Z" id="primary-background" fill="url(#linearGradient-2)"></path>
        </g>
    </g>
</svg>