<?xml version="1.0" encoding="UTF-8"?>
<svg width="548px" height="527px" viewBox="0 0 548 527" version="1.1" xmlns="http://www.w3.org/2000/svg" xmlns:xlink="http://www.w3.org/1999/xlink">
    <!-- Generator: Sketch 52.6 (67491) - http://www.bohemiancoding.com/sketch -->
    <title>Group</title>
    <desc>Created with Sketch.</desc>
    <defs>
        <linearGradient x1="97.0193509%" y1="2.45560144%" x2="6.26237783%" y2="96.7776576%" id="linearGradient-1">
            <stop stop-color="#80C3F3" offset="0%"></stop>
            <stop stop-color="#114D94" offset="100%"></stop>
        </linearGradient>
        <linearGradient x1="97.6878451%" y1="2.58401754%" x2="22.1476001%" y2="75.7294093%" id="linearGradient-2">
            <stop stop-color="#3F51B5" offset="0%"></stop>
            <stop stop-color="#2195F2" offset="100%"></stop>
            <stop stop-color="#2196F3" offset="100%"></stop>
        </linearGradient>
    </defs>
    <g id="Page-1" stroke="none" stroke-width="1" fill="none" fill-rule="evenodd">
        <g id="logo" transform="translate(-298.000000, -289.000000)">
            <g id="Group" transform="translate(298.000000, 289.000000)">
                <path d="M85.6128919,128.669671 L534.30966,1.28541907 C539.622551,-0.222901739 545.152236,2.86131195 546.660557,8.17420314 C547.108897,9.75343047 547.161551,11.4187482 546.813872,13.0231442 L456.052037,431.851196 C455.055209,436.451139 450.985593,439.733312 446.278881,439.733312 L88.3439483,439.733312 C82.8211008,439.733312 78.3439483,435.256159 78.3439483,429.733312 L78.3439483,138.289512 C78.3439483,133.81848 81.311831,129.890735 85.6128919,128.669671 Z" id="secondary-background" fill="url(#linearGradient-1)"></path>
                <path d="M7.60448284,215.771268 L456.301251,88.3870156 C461.614142,86.8786947 467.143827,89.9629084 468.652148,95.2757996 C469.100488,96.855027 469.153142,98.5203447 468.805463,100.124741 L378.043627,518.952793 C377.0468,523.552736 372.977184,526.834908 368.270472,526.834908 L10.3355392,526.834908 C4.81269175,526.834908 0.335539247,522.357756 0.335539247,516.834908 L0.335539247,225.391108 C0.335539247,220.920077 3.30342195,216.992331 7.60448284,215.771268 Z" id="primary-background" fill="url(#linearGradient-2)"></path>
            </g>
        </g>
    </g>
</svg>