<svg xmlns="http://www.w3.org/2000/svg" xmlns:xlink="http://www.w3.org/1999/xlink" width="548" height="527" version="1.1" viewBox="0 0 548 527"><title>Group</title><desc>Created with Sketch.</desc><defs><linearGradient id="linearGradient-1" x1="97.019%" x2="6.262%" y1="2.456%" y2="96.778%"><stop offset="0%" stop-color="#80C3F3"/><stop offset="100%" stop-color="#114D94"/></linearGradient><linearGradient id="linearGradient-2" x1="97.688%" x2="22.148%" y1="2.584%" y2="75.729%"><stop offset="0%" stop-color="#3F51B5"/><stop offset="100%" stop-color="#2195F2"/><stop offset="100%" stop-color="#2196F3"/></linearGradient></defs><g id="Page-1" fill="none" fill-rule="evenodd" stroke="none" stroke-width="1"><g id="logo" transform="translate(-298.000000, -289.000000)"><g id="Group" transform="translate(298.000000, 289.000000)"><path id="secondary-background" fill="url(#linearGradient-1)" d="M85.6128919,128.669671 L534.30966,1.28541907 C539.622551,-0.222901739 545.152236,2.86131195 546.660557,8.17420314 C547.108897,9.75343047 547.161551,11.4187482 546.813872,13.0231442 L456.052037,431.851196 C455.055209,436.451139 450.985593,439.733312 446.278881,439.733312 L88.3439483,439.733312 C82.8211008,439.733312 78.3439483,435.256159 78.3439483,429.733312 L78.3439483,138.289512 C78.3439483,133.81848 81.311831,129.890735 85.6128919,128.669671 Z"/><path id="primary-background" fill="url(#linearGradient-2)" d="M7.60448284,215.771268 L456.301251,88.3870156 C461.614142,86.8786947 467.143827,89.9629084 468.652148,95.2757996 C469.100488,96.855027 469.153142,98.5203447 468.805463,100.124741 L378.043627,518.952793 C377.0468,523.552736 372.977184,526.834908 368.270472,526.834908 L10.3355392,526.834908 C4.81269175,526.834908 0.335539247,522.357756 0.335539247,516.834908 L0.335539247,225.391108 C0.335539247,220.920077 3.30342195,216.992331 7.60448284,215.771268 Z"/></g></g></g></svg>